<?xml version="1.0" encoding="UTF-8"?>
<svg width="1024px" height="1024px" viewBox="0 0 1024 1024" version="1.1" xmlns="http://www.w3.org/2000/svg" xmlns:xlink="http://www.w3.org/1999/xlink">
    <!-- Generator: Sketch 49.2 (51160) - http://www.bohemiancoding.com/sketch -->
    <title>Desktop</title>
    <desc>Created with Sketch.</desc>
    <defs></defs>
    <g id="Desktop" stroke="none" stroke-width="1" fill="none" fill-rule="evenodd">
        <g id="Confetti" transform="translate(1.000000, 90.000000)">
            <g id="Group-5" transform="translate(76.000000, 162.000000)" fill="#F282B2" fill-rule="nonzero">
                <g id="Confetti-1" transform="translate(903.057538, 489.035434) scale(-1, 1) rotate(-15.000000) translate(-903.057538, -489.035434) translate(879.057538, 465.035434)">
                    <path d="M28.8,24 C28.8,26.6233526 30.9490332,28.75 33.6,28.75 C36.2509668,28.75 38.4,26.6233526 38.4,24 L48,24 C48,31.8700577 41.5529004,38.25 33.6,38.25 C25.6470996,38.25 19.2,31.8700577 19.2,24 C19.2,21.3766474 17.0509668,19.25 14.4,19.25 C11.7490332,19.25 9.6,21.3766474 9.6,24 L0,24 C0,16.1299423 6.4470996,9.75 14.4,9.75 C22.3529004,9.75 28.8,16.1299423 28.8,24 Z" id="Combined-Shape"></path>
                </g>
                <g id="Confetti-1" transform="translate(747.802942, 104.357812) scale(-1, -1) rotate(-280.000000) translate(-747.802942, -104.357812) translate(723.802942, 80.357812)">
                    <path d="M28.8,24 C28.8,26.6233526 30.9490332,28.75 33.6,28.75 C36.2509668,28.75 38.4,26.6233526 38.4,24 L48,24 C48,31.8700577 41.5529004,38.25 33.6,38.25 C25.6470996,38.25 19.2,31.8700577 19.2,24 C19.2,21.3766474 17.0509668,19.25 14.4,19.25 C11.7490332,19.25 9.6,21.3766474 9.6,24 L0,24 C0,16.1299423 6.4470996,9.75 14.4,9.75 C22.3529004,9.75 28.8,16.1299423 28.8,24 Z" id="Combined-Shape"></path>
                </g>
                <g id="Confetti-1" transform="translate(435.279929, 627.279929) scale(-1, 1) rotate(-243.000000) translate(-435.279929, -627.279929) translate(411.279929, 603.279929)">
                    <path d="M28.8,24 C28.8,26.6233526 30.9490332,28.75 33.6,28.75 C36.2509668,28.75 38.4,26.6233526 38.4,24 L48,24 C48,31.8700577 41.5529004,38.25 33.6,38.25 C25.6470996,38.25 19.2,31.8700577 19.2,24 C19.2,21.3766474 17.0509668,19.25 14.4,19.25 C11.7490332,19.25 9.6,21.3766474 9.6,24 L0,24 C0,16.1299423 6.4470996,9.75 14.4,9.75 C22.3529004,9.75 28.8,16.1299423 28.8,24 Z" id="Combined-Shape"></path>
                </g>
                <g id="Confetti-1" transform="translate(312.285669, 33.935956) scale(-1, -1) rotate(-316.000000) translate(-312.285669, -33.935956) translate(288.285669, 9.935956)">
                    <path d="M28.8,24 C28.8,26.6233526 30.9490332,28.75 33.6,28.75 C36.2509668,28.75 38.4,26.6233526 38.4,24 L48,24 C48,31.8700577 41.5529004,38.25 33.6,38.25 C25.6470996,38.25 19.2,31.8700577 19.2,24 C19.2,21.3766474 17.0509668,19.25 14.4,19.25 C11.7490332,19.25 9.6,21.3766474 9.6,24 L0,24 C0,16.1299423 6.4470996,9.75 14.4,9.75 C22.3529004,9.75 28.8,16.1299423 28.8,24 Z" id="Combined-Shape"></path>
                </g>
                <g id="Confetti-1" transform="translate(40.517385, 555.397860) scale(1, -1) rotate(-338.000000) translate(-40.517385, -555.397860) translate(16.517385, 531.397860)">
                    <path d="M28.8,24 C28.8,26.6233526 30.9490332,28.75 33.6,28.75 C36.2509668,28.75 38.4,26.6233526 38.4,24 L48,24 C48,31.8700577 41.5529004,38.25 33.6,38.25 C25.6470996,38.25 19.2,31.8700577 19.2,24 C19.2,21.3766474 17.0509668,19.25 14.4,19.25 C11.7490332,19.25 9.6,21.3766474 9.6,24 L0,24 C0,16.1299423 6.4470996,9.75 14.4,9.75 C22.3529004,9.75 28.8,16.1299423 28.8,24 Z" id="Combined-Shape"></path>
                </g>
                <g id="Confetti-1" transform="translate(25.942909, 59.463484) rotate(-177.000000) translate(-25.942909, -59.463484) translate(1.942909, 35.463484)">
                    <path d="M28.8,24 C28.8,26.6233526 30.9490332,28.75 33.6,28.75 C36.2509668,28.75 38.4,26.6233526 38.4,24 L48,24 C48,31.8700577 41.5529004,38.25 33.6,38.25 C25.6470996,38.25 19.2,31.8700577 19.2,24 C19.2,21.3766474 17.0509668,19.25 14.4,19.25 C11.7490332,19.25 9.6,21.3766474 9.6,24 L0,24 C0,16.1299423 6.4470996,9.75 14.4,9.75 C22.3529004,9.75 28.8,16.1299423 28.8,24 Z" id="Combined-Shape"></path>
                </g>
            </g>
            <g id="Group-3" fill="#81D9DB">
                <g id="Confetti-3" transform="translate(814.066350, 698.391627) scale(-1, 1) rotate(-181.000000) translate(-814.066350, -698.391627) translate(790.066350, 674.391627)">
                    <path d="M16.8040409,16.8040409 C18.0274418,11.4747918 22.7995397,7.5 28.5,7.5 C35.127417,7.5 40.5,12.872583 40.5,19.5 C40.5,25.2004603 36.5252082,29.9725582 31.1959591,31.1959591 C29.9725582,36.5252082 25.2004603,40.5 19.5,40.5 C12.872583,40.5 7.5,35.127417 7.5,28.5 C7.5,22.7995397 11.4747918,18.0274418 16.8040409,16.8040409 Z M16.8040409,16.8040409 C16.6051026,17.6706346 16.5,18.5730433 16.5,19.5 C16.5,26.127417 21.872583,31.5 28.5,31.5 C29.4269567,31.5 30.3293654,31.3948974 31.1959591,31.1959591 C31.3948974,30.3293654 31.5,29.4269567 31.5,28.5 C31.5,21.872583 26.127417,16.5 19.5,16.5 C18.5730433,16.5 17.6706346,16.6051026 16.8040409,16.8040409 Z" id="Combined-Shape"></path>
                </g>
                <g id="Confetti-3" transform="translate(979.101682, 387.737506) rotate(-297.000000) translate(-979.101682, -387.737506) translate(955.101682, 363.737506)">
                    <path d="M16.8040409,16.8040409 C18.0274418,11.4747918 22.7995397,7.5 28.5,7.5 C35.127417,7.5 40.5,12.872583 40.5,19.5 C40.5,25.2004603 36.5252082,29.9725582 31.1959591,31.1959591 C29.9725582,36.5252082 25.2004603,40.5 19.5,40.5 C12.872583,40.5 7.5,35.127417 7.5,28.5 C7.5,22.7995397 11.4747918,18.0274418 16.8040409,16.8040409 Z M16.8040409,16.8040409 C16.6051026,17.6706346 16.5,18.5730433 16.5,19.5 C16.5,26.127417 21.872583,31.5 28.5,31.5 C29.4269567,31.5 30.3293654,31.3948974 31.1959591,31.1959591 C31.3948974,30.3293654 31.5,29.4269567 31.5,28.5 C31.5,21.872583 26.127417,16.5 19.5,16.5 C18.5730433,16.5 17.6706346,16.6051026 16.8040409,16.8040409 Z" id="Combined-Shape"></path>
                </g>
                <g id="Confetti-3" transform="translate(778.006761, 52.993239) scale(1, -1) rotate(-159.000000) translate(-778.006761, -52.993239) translate(754.006761, 28.993239)">
                    <path d="M16.8040409,16.8040409 C18.0274418,11.4747918 22.7995397,7.5 28.5,7.5 C35.127417,7.5 40.5,12.872583 40.5,19.5 C40.5,25.2004603 36.5252082,29.9725582 31.1959591,31.1959591 C29.9725582,36.5252082 25.2004603,40.5 19.5,40.5 C12.872583,40.5 7.5,35.127417 7.5,28.5 C7.5,22.7995397 11.4747918,18.0274418 16.8040409,16.8040409 Z M16.8040409,16.8040409 C16.6051026,17.6706346 16.5,18.5730433 16.5,19.5 C16.5,26.127417 21.872583,31.5 28.5,31.5 C29.4269567,31.5 30.3293654,31.3948974 31.1959591,31.1959591 C31.3948974,30.3293654 31.5,29.4269567 31.5,28.5 C31.5,21.872583 26.127417,16.5 19.5,16.5 C18.5730433,16.5 17.6706346,16.6051026 16.8040409,16.8040409 Z" id="Combined-Shape"></path>
                </g>
                <g id="Confetti-3" transform="translate(448.393877, 575.393877) scale(-1, -1) rotate(-345.000000) translate(-448.393877, -575.393877) translate(424.393877, 551.393877)">
                    <path d="M16.8040409,16.8040409 C18.0274418,11.4747918 22.7995397,7.5 28.5,7.5 C35.127417,7.5 40.5,12.872583 40.5,19.5 C40.5,25.2004603 36.5252082,29.9725582 31.1959591,31.1959591 C29.9725582,36.5252082 25.2004603,40.5 19.5,40.5 C12.872583,40.5 7.5,35.127417 7.5,28.5 C7.5,22.7995397 11.4747918,18.0274418 16.8040409,16.8040409 Z M16.8040409,16.8040409 C16.6051026,17.6706346 16.5,18.5730433 16.5,19.5 C16.5,26.127417 21.872583,31.5 28.5,31.5 C29.4269567,31.5 30.3293654,31.3948974 31.1959591,31.1959591 C31.3948974,30.3293654 31.5,29.4269567 31.5,28.5 C31.5,21.872583 26.127417,16.5 19.5,16.5 C18.5730433,16.5 17.6706346,16.6051026 16.8040409,16.8040409 Z" id="Combined-Shape"></path>
                </g>
                <g id="Confetti-3" transform="translate(34.694833, 580.285609) scale(1, -1) rotate(-46.000000) translate(-34.694833, -580.285609) translate(10.694833, 556.285609)">
                    <path d="M16.8040409,16.8040409 C18.0274418,11.4747918 22.7995397,7.5 28.5,7.5 C35.127417,7.5 40.5,12.872583 40.5,19.5 C40.5,25.2004603 36.5252082,29.9725582 31.1959591,31.1959591 C29.9725582,36.5252082 25.2004603,40.5 19.5,40.5 C12.872583,40.5 7.5,35.127417 7.5,28.5 C7.5,22.7995397 11.4747918,18.0274418 16.8040409,16.8040409 Z M16.8040409,16.8040409 C16.6051026,17.6706346 16.5,18.5730433 16.5,19.5 C16.5,26.127417 21.872583,31.5 28.5,31.5 C29.4269567,31.5 30.3293654,31.3948974 31.1959591,31.1959591 C31.3948974,30.3293654 31.5,29.4269567 31.5,28.5 C31.5,21.872583 26.127417,16.5 19.5,16.5 C18.5730433,16.5 17.6706346,16.6051026 16.8040409,16.8040409 Z" id="Combined-Shape"></path>
                </g>
                <g id="Confetti-3" transform="translate(156.968235, 29.968235) rotate(-107.000000) translate(-156.968235, -29.968235) translate(132.968235, 5.968235)">
                    <path d="M16.8040409,16.8040409 C18.0274418,11.4747918 22.7995397,7.5 28.5,7.5 C35.127417,7.5 40.5,12.872583 40.5,19.5 C40.5,25.2004603 36.5252082,29.9725582 31.1959591,31.1959591 C29.9725582,36.5252082 25.2004603,40.5 19.5,40.5 C12.872583,40.5 7.5,35.127417 7.5,28.5 C7.5,22.7995397 11.4747918,18.0274418 16.8040409,16.8040409 Z M16.8040409,16.8040409 C16.6051026,17.6706346 16.5,18.5730433 16.5,19.5 C16.5,26.127417 21.872583,31.5 28.5,31.5 C29.4269567,31.5 30.3293654,31.3948974 31.1959591,31.1959591 C31.3948974,30.3293654 31.5,29.4269567 31.5,28.5 C31.5,21.872583 26.127417,16.5 19.5,16.5 C18.5730433,16.5 17.6706346,16.6051026 16.8040409,16.8040409 Z" id="Combined-Shape"></path>
                </g>
            </g>
            <g id="Group-4" transform="translate(21.000000, 8.000000)" fill="#F8E883">
                <g id="Confetti-2" transform="translate(804.093223, 870.093223) scale(-1, -1) rotate(-166.000000) translate(-804.093223, -870.093223) translate(780.093223, 846.093223)">
                    <path d="M9,9 C14,11.5 19,12.75 24,12.75 C29,12.75 34,11.5 39,9 C36.5,14 35.25,19 35.25,24 C35.25,29 36.5,34 39,39 C34,36.5 29,35.25 24,35.25 C19,35.25 14,36.5 9,39 C11.5,34 12.75,29 12.75,24 C12.75,19 11.5,14 9,9 Z" id="Rectangle"></path>
                </g>
                <g id="Confetti-2" transform="translate(928.223172, 118.493721) scale(1, -1) rotate(-3.000000) translate(-928.223172, -118.493721) translate(904.223172, 94.493721)">
                    <path d="M9,9 C14,11.5 19,12.75 24,12.75 C29,12.75 34,11.5 39,9 C36.5,14 35.25,19 35.25,24 C35.25,29 36.5,34 39,39 C34,36.5 29,35.25 24,35.25 C19,35.25 14,36.5 9,39 C11.5,34 12.75,29 12.75,24 C12.75,19 11.5,14 9,9 Z" id="Rectangle"></path>
                </g>
                <g id="Confetti-2" transform="translate(367.610813, 861.610813) rotate(-53.000000) translate(-367.610813, -861.610813) translate(343.610813, 837.610813)">
                    <path d="M9,9 C14,11.5 19,12.75 24,12.75 C29,12.75 34,11.5 39,9 C36.5,14 35.25,19 35.25,24 C35.25,29 36.5,34 39,39 C34,36.5 29,35.25 24,35.25 C19,35.25 14,36.5 9,39 C11.5,34 12.75,29 12.75,24 C12.75,19 11.5,14 9,9 Z" id="Rectangle"></path>
                </g>
                <g id="Confetti-2" transform="translate(430.946011, 26.132547) scale(-1, 1) rotate(-95.000000) translate(-430.946011, -26.132547) translate(406.946011, 2.132547)">
                    <path d="M9,9 C14,11.5 19,12.75 24,12.75 C29,12.75 34,11.5 39,9 C36.5,14 35.25,19 35.25,24 C35.25,29 36.5,34 39,39 C34,36.5 29,35.25 24,35.25 C19,35.25 14,36.5 9,39 C11.5,34 12.75,29 12.75,24 C12.75,19 11.5,14 9,9 Z" id="Rectangle"></path>
                </g>
                <g id="Confetti-2" transform="translate(212.458947, 510.458947) scale(-1, -1) rotate(-261.000000) translate(-212.458947, -510.458947) translate(188.458947, 486.458947)">
                    <path d="M9,9 C14,11.5 19,12.75 24,12.75 C29,12.75 34,11.5 39,9 C36.5,14 35.25,19 35.25,24 C35.25,29 36.5,34 39,39 C34,36.5 29,35.25 24,35.25 C19,35.25 14,36.5 9,39 C11.5,34 12.75,29 12.75,24 C12.75,19 11.5,14 9,9 Z" id="Rectangle"></path>
                </g>
                <g id="Confetti-2" transform="translate(28.465401, 294.360212) rotate(-100.000000) translate(-28.465401, -294.360212) translate(4.465401, 270.360212)">
                    <path d="M9,9 C14,11.5 19,12.75 24,12.75 C29,12.75 34,11.5 39,9 C36.5,14 35.25,19 35.25,24 C35.25,29 36.5,34 39,39 C34,36.5 29,35.25 24,35.25 C19,35.25 14,36.5 9,39 C11.5,34 12.75,29 12.75,24 C12.75,19 11.5,14 9,9 Z" id="Rectangle"></path>
                </g>
            </g>
            <g id="Group-2" transform="translate(237.000000, 84.000000)" fill="#ACE9BC">
                <g id="Confetti-4" transform="translate(406.147850, 618.465423) scale(-1, -1) rotate(-348.000000) translate(-406.147850, -618.465423) translate(382.147850, 594.465423)">
                    <path d="M24,7.5 C25,14.25 27,20 30,24.75 C33,29.5 37,33.25 42,36 C36,34 30,33 24,33 C18,33 12,34 6,36 C11,33.25 15,29.5 18,24.75 C21,20 23,14.25 24,7.5 Z" id="Triangle"></path>
                    <path d="M24,2.75 C25.3333333,11.75 28,19.4166667 32,25.75 C36,32.0833333 41.3333333,37.0833333 48,40.75 C40,38.0833333 32,36.75 24,36.75 C16,36.75 8,38.0833333 0,40.75 C6.66666667,37.0833333 12,32.0833333 16,25.75 C20,19.4166667 22.6666667,11.75 24,2.75 Z" id="Triangle" transform="translate(24.000000, 21.750000) scale(-1, 1) translate(-24.000000, -21.750000) "></path>
                </g>
                <g id="Confetti-4" transform="translate(540.893301, 392.343151) scale(1, -1) rotate(-11.000000) translate(-540.893301, -392.343151) translate(516.893301, 368.343151)">
                    <path d="M24,7.5 C25,14.25 27,20 30,24.75 C33,29.5 37,33.25 42,36 C36,34 30,33 24,33 C18,33 12,34 6,36 C11,33.25 15,29.5 18,24.75 C21,20 23,14.25 24,7.5 Z" id="Triangle"></path>
                    <path d="M24,2.75 C25.3333333,11.75 28,19.4166667 32,25.75 C36,32.0833333 41.3333333,37.0833333 48,40.75 C40,38.0833333 32,36.75 24,36.75 C16,36.75 8,38.0833333 0,40.75 C6.66666667,37.0833333 12,32.0833333 16,25.75 C20,19.4166667 22.6666667,11.75 24,2.75 Z" id="Triangle" transform="translate(24.000000, 21.750000) scale(-1, 1) translate(-24.000000, -21.750000) "></path>
                </g>
                <g id="Confetti-4" transform="translate(433.950793, 150.056469) scale(-1, 1) rotate(-80.000000) translate(-433.950793, -150.056469) translate(409.950793, 126.056469)">
                    <path d="M24,7.5 C25,14.25 27,20 30,24.75 C33,29.5 37,33.25 42,36 C36,34 30,33 24,33 C18,33 12,34 6,36 C11,33.25 15,29.5 18,24.75 C21,20 23,14.25 24,7.5 Z" id="Triangle"></path>
                    <path d="M24,2.75 C25.3333333,11.75 28,19.4166667 32,25.75 C36,32.0833333 41.3333333,37.0833333 48,40.75 C40,38.0833333 32,36.75 24,36.75 C16,36.75 8,38.0833333 0,40.75 C6.66666667,37.0833333 12,32.0833333 16,25.75 C20,19.4166667 22.6666667,11.75 24,2.75 Z" id="Triangle" transform="translate(24.000000, 21.750000) scale(-1, 1) translate(-24.000000, -21.750000) "></path>
                </g>
                <g id="Confetti-4" transform="translate(28.465423, 693.465423) scale(1, -1) rotate(-348.000000) translate(-28.465423, -693.465423) translate(4.465423, 669.465423)">
                    <path d="M24,7.5 C25,14.25 27,20 30,24.75 C33,29.5 37,33.25 42,36 C36,34 30,33 24,33 C18,33 12,34 6,36 C11,33.25 15,29.5 18,24.75 C21,20 23,14.25 24,7.5 Z" id="Triangle"></path>
                    <path d="M24,2.75 C25.3333333,11.75 28,19.4166667 32,25.75 C36,32.0833333 41.3333333,37.0833333 48,40.75 C40,38.0833333 32,36.75 24,36.75 C16,36.75 8,38.0833333 0,40.75 C6.66666667,37.0833333 12,32.0833333 16,25.75 C20,19.4166667 22.6666667,11.75 24,2.75 Z" id="Triangle" transform="translate(24.000000, 21.750000) scale(-1, 1) translate(-24.000000, -21.750000) "></path>
                </g>
                <g id="Confetti-4" transform="translate(56.523254, 237.523254) scale(-1, 1) rotate(-144.000000) translate(-56.523254, -237.523254) translate(32.523254, 213.523254)">
                    <path d="M24,7.5 C25,14.25 27,20 30,24.75 C33,29.5 37,33.25 42,36 C36,34 30,33 24,33 C18,33 12,34 6,36 C11,33.25 15,29.5 18,24.75 C21,20 23,14.25 24,7.5 Z" id="Triangle"></path>
                    <path d="M24,2.75 C25.3333333,11.75 28,19.4166667 32,25.75 C36,32.0833333 41.3333333,37.0833333 48,40.75 C40,38.0833333 32,36.75 24,36.75 C16,36.75 8,38.0833333 0,40.75 C6.66666667,37.0833333 12,32.0833333 16,25.75 C20,19.4166667 22.6666667,11.75 24,2.75 Z" id="Triangle" transform="translate(24.000000, 21.750000) scale(-1, 1) translate(-24.000000, -21.750000) "></path>
                </g>
                <g id="Confetti-4" transform="translate(97.858447, 33.858447) rotate(-229.000000) translate(-97.858447, -33.858447) translate(73.858447, 9.858447)">
                    <path d="M24,7.5 C25,14.25 27,20 30,24.75 C33,29.5 37,33.25 42,36 C36,34 30,33 24,33 C18,33 12,34 6,36 C11,33.25 15,29.5 18,24.75 C21,20 23,14.25 24,7.5 Z" id="Triangle"></path>
                    <path d="M24,2.75 C25.3333333,11.75 28,19.4166667 32,25.75 C36,32.0833333 41.3333333,37.0833333 48,40.75 C40,38.0833333 32,36.75 24,36.75 C16,36.75 8,38.0833333 0,40.75 C6.66666667,37.0833333 12,32.0833333 16,25.75 C20,19.4166667 22.6666667,11.75 24,2.75 Z" id="Triangle" transform="translate(24.000000, 21.750000) scale(-1, 1) translate(-24.000000, -21.750000) "></path>
                </g>
            </g>
        </g>
    </g>
</svg>